# xmcd CD database file
# Copyright (C) 1997 Ti Kan
#
# Track frame offsets:
#  182
#  10135
#  18635
#  29432
#  44707
#  57657
#  68255
#  80687
#  93182
#  103207
#  113127
#  123705
#  132872
#  143560
#  154942
#  166910
#  180697
#  193575
#  206275
#  216512
#  227622
#  242150
#  252602
#  264247
#  276770
#  288565
#  298822
#  312425
#  323265
#  336002
#
# Disc length: 4633 seconds
#
# Revision: 1
# Processed by: cddbd v1.4b41PL1 Copyright (c) Steve Scherf et al.
# Submitted via: CDWizzard Release:4.31
#
DISCID=c212171e
DTITLE=Lazy Lester - I Hear You Knockin'!  The Excello Singles
DYEAR=1900
DGENRE=
TTITLE0=I'm Gonna Leave You Baby
TTITLE1=Lester's Stomp
TTITLE2=Go Ahead
TTITLE3=They Call Me Lazy
TTITLE4=I Told My Little Woman
TTITLE5=Tell Me Pretty Baby
TTITLE6=I'm A Lover Not A Fighter
TTITLE7=Sugar Coated Love
TTITLE8=I Hear You Knockin'
TTITLE9=Through The Goodness Of My Heart
TTITLE10=I Love You, I Need You
TTITLE11=Late, Late In The Evening
TTITLE12=Bye, Bye Baby
TTITLE13=A Real Combination For Love
TTITLE14=Patrol Blues
TTITLE15=You Got Me Where You Want Me
TTITLE16=I'm So Glad
TTITLE17=Whoa Now
TTITLE18=If You Think I've Lost You
TTITLE19=I'm So Tired
TTITLE20=Lonesome Highway Blues
TTITLE21=I Made Up My Mind
TTITLE22=You're Gonna Ruin Me Baby
TTITLE23=Strange Things Happen
TTITLE24=A Word About Women
TTITLE25=The Same Thing Could Happen To You
TTITLE26=Take Me In Your Arms
TTITLE27=You Better Listen
TTITLE28=Because She's Gone
TTITLE29=Pondarosa Stomp
EXTD=Excello CD 3003\n\nSubmitted 7/8/97\n[Jmccoy@efn.org]
EXTT0=
EXTT1=
EXTT2=
EXTT3=
EXTT4=
EXTT5=
EXTT6=
EXTT7=
EXTT8=
EXTT9=
EXTT10=
EXTT11=
EXTT12=
EXTT13=
EXTT14=
EXTT15=
EXTT16=
EXTT17=
EXTT18=
EXTT19=
EXTT20=
EXTT21=
EXTT22=
EXTT23=
EXTT24=
EXTT25=
EXTT26=
EXTT27=
EXTT28=
EXTT29=
PLAYORDER=
